<svg xmlns="http://www.w3.org/2000/svg" xmlns:xlink="http://www.w3.org/1999/xlink" width="28" height="28" viewBox="0 0 28 28">
  <defs>
    <clipPath id="clip-path">
      <rect id="Rectangle_16" data-name="Rectangle 16" width="28" height="28" transform="translate(17 137)" fill="none" stroke="#707070" stroke-width="1"/>
    </clipPath>
  </defs>
  <g id="binoculars" transform="translate(-17 -137)" clip-path="url(#clip-path)">
    <g id="binoculars-2" data-name="binoculars" transform="translate(20.998 141.001)">
      <g id="Group_32" data-name="Group 32" transform="translate(9.196 13.589)">
        <g id="Group_31" data-name="Group 31" transform="translate(-0.199 0.402)">
          <circle id="Ellipse_1" data-name="Ellipse 1" cx="1" cy="1" r="1" transform="translate(0 0)" fill="#538925"/>
        </g>
      </g>
      <g id="Group_34" data-name="Group 34" transform="translate(0.002 -0.001)">
        <g id="Group_33" data-name="Group 33" transform="translate(0 0)">
          <path id="Path_2" data-name="Path 2" d="M19.858,14.642,18.811,6.265h0a3.71,3.71,0,0,0-1.667-2.847l-.164-1.309a2.345,2.345,0,0,0-2.55-2.1,2.225,2.225,0,0,0-1.551.824,2.618,2.618,0,0,0-.54,1.654v1.57A3.693,3.693,0,0,0,11.4,6.518V8.185a4.539,4.539,0,0,0-2.811,0V6.518A3.7,3.7,0,0,0,7.575,3.972V2.488A2.618,2.618,0,0,0,7.035.833,2.225,2.225,0,0,0,5.484.01a2.345,2.345,0,0,0-2.55,2.1L2.77,3.42l.063.008A3.71,3.71,0,0,0,1.182,6.266h0L.132,14.642a4.294,4.294,0,1,0,8.455,1.19h0V13.115a1.892,1.892,0,0,1,2.811,0v2.716h0a4.294,4.294,0,1,0,8.455-1.19ZM4.485,2.292l0-.024a.782.782,0,0,1,.85-.7c.61.057.675.665.675.924v.5a3.716,3.716,0,0,0-1.6-.148ZM2.721,6.518h.013a2.147,2.147,0,0,1,4.294,0v5.863a4.285,4.285,0,0,0-5-.336ZM4.3,18.424a2.732,2.732,0,1,1,2.732-2.732A2.736,2.736,0,0,1,4.3,18.424Zm7.1-7.2a3.457,3.457,0,0,0-2.811,0V9.877a2.971,2.971,0,0,1,2.811,0Zm3.173-9.663a.782.782,0,0,1,.851.7l.07.562a3.738,3.738,0,0,0-.386-.02,3.691,3.691,0,0,0-1.21.2V2.488h0C13.9,2.229,13.964,1.622,14.574,1.564ZM12.962,6.518h0a2.147,2.147,0,0,1,4.294,0h.013l.691,5.527a4.285,4.285,0,0,0-5,.336V6.518Zm2.732,11.906a2.732,2.732,0,1,1,2.732-2.732A2.736,2.736,0,0,1,15.694,18.424Z" transform="translate(-0.002 0.001)" fill="#538925"/>
        </g>
      </g>
    </g>
  </g>
</svg>
