<svg xmlns="http://www.w3.org/2000/svg" xmlns:xlink="http://www.w3.org/1999/xlink" width="28" height="28" viewBox="0 0 28 28">
  <defs>
    <clipPath id="clip-path">
      <rect id="Rectangle_16" data-name="Rectangle 16" width="28" height="28" transform="translate(17 314)" fill="none" stroke="#707070" stroke-width="1"/>
    </clipPath>
  </defs>
  <g id="location" transform="translate(-17 -314)" clip-path="url(#clip-path)">
    <g id="pin" transform="translate(-19 317)">
      <g id="Group_38" data-name="Group 38" transform="translate(46.835 4.006)">
        <g id="Group_37" data-name="Group 37" transform="translate(0)">
          <path id="Path_5" data-name="Path 5" d="M178.527,92a3.527,3.527,0,1,0,3.527,3.527A3.531,3.531,0,0,0,178.527,92Zm0,5.312a1.785,1.785,0,1,1,1.785-1.785A1.787,1.787,0,0,1,178.527,97.312Z" transform="translate(-175 -92)" fill="#538925"/>
        </g>
      </g>
      <g id="Group_40" data-name="Group 40" transform="translate(41)">
        <g id="Group_39" data-name="Group 39" transform="translate(0)">
          <path id="Path_6" data-name="Path 6" d="M53.571,16.066c.256-.272.518-.561.78-.864,2.351-2.714,3.544-5.153,3.544-7.248v-.42a7.533,7.533,0,1,0-15.066,0v.42c0,2.1,1.192,4.534,3.544,7.248.263.3.525.592.78.864-2.436.266-6.153,1-6.153,3.03,0,1.08,1.052,1.917,3.128,2.486a24.62,24.62,0,0,0,6.234.713,24.62,24.62,0,0,0,6.234-.713c2.075-.569,3.128-1.405,3.128-2.486C59.723,17.071,56.021,16.333,53.571,16.066Zm-9-8.112v-.42a5.791,5.791,0,1,1,11.582,0v.42c0,1.636-1.073,3.741-3.1,6.088a30.22,30.22,0,0,1-2.69,2.719,30.169,30.169,0,0,1-2.673-2.7C45.649,11.706,44.571,9.594,44.571,7.954ZM55.758,20a24.038,24.038,0,0,1-5.4.554,24.038,24.038,0,0,1-5.4-.554,4.758,4.758,0,0,1-2.177-.9,3.958,3.958,0,0,1,1.661-.767,20.284,20.284,0,0,1,4.332-.648c.595.549,1,.877,1.03.9l.55.448.55-.448c.034-.027.435-.356,1.03-.9a20.335,20.335,0,0,1,4.319.644,3.98,3.98,0,0,1,1.675.771A4.758,4.758,0,0,1,55.758,20Z" transform="translate(-41)" fill="#538925"/>
        </g>
      </g>
    </g>
  </g>
</svg>
